<svg width="200" height="111" viewBox="0 0 200 111" fill="none" xmlns="http://www.w3.org/2000/svg">
<path d="M117.678 12.3225C115.364 9.99014 112.61 8.14 109.576 6.87922C106.542 5.61843 103.288 4.97205 100.003 4.9775C96.7163 4.97236 93.4617 5.61886 90.427 6.87961C87.3923 8.14035 84.6377 9.99032 82.3225 12.3225C72.575 22.0675 72.575 37.93 82.3225 47.6775C84.6377 50.0103 87.3927 51.8607 90.4279 53.1214C93.4632 54.3822 96.7183 55.0284 100.005 55.0225C103.29 55.0283 106.544 54.3823 109.578 53.1219C112.612 51.8616 115.366 50.0119 117.68 47.68C127.428 37.935 127.428 22.0725 117.678 12.3225ZM100.452 10H99.555C99.7075 9.9975 99.8525 9.9775 100.005 9.9775C100.157 9.9775 100.3 9.9975 100.452 10ZM115.608 42.5H110L106.855 48.79C104.661 49.6005 102.341 50.0177 100.003 50.0225C97.6593 50.0182 95.3353 49.6001 93.1375 48.7875L90 42.525H84.4125C82.3511 39.9622 80.957 36.9284 80.355 33.695L85 27.5L81.96 21.4175C82.93 19.354 84.2485 17.4731 85.8575 15.8575C88.1095 13.5976 90.8697 11.9098 93.9075 10.935L100 15L106.095 10.9375C109.132 11.913 111.892 13.5998 114.145 15.8575C115.752 17.4712 117.07 19.3494 118.04 21.41L115 27.5L119.645 33.695C119.046 36.918 117.659 39.9428 115.608 42.5Z" fill="#22668A"/>
<path d="M91.25 27.5L95 37.5H105L108.75 27.5L100 21.25L91.25 27.5Z" fill="#22668A"/>
<path d="M12.132 95.764C12.132 97.42 11.952 98.812 11.592 99.94C11.232 101.068 10.572 101.92 9.612 102.496C8.652 103.072 7.272 103.36 5.472 103.36C4.644 103.36 3.792 103.288 2.916 103.144C2.04 103.012 1.398 102.892 0.99 102.784L1.098 97.978C1.446 98.05 1.842 98.146 2.286 98.266C2.742 98.386 3.246 98.446 3.798 98.446C5.01 98.446 5.826 98.128 6.246 97.492C6.666 96.844 6.876 95.8 6.876 94.36V76.972H12.132V95.764ZM21.0544 94.9C21.0424 95.848 21.1924 96.676 21.5044 97.384C21.8164 98.08 22.2664 98.62 22.8544 99.004C23.4544 99.376 24.1744 99.562 25.0144 99.562C25.9144 99.562 26.7004 99.37 27.3724 98.986C28.0564 98.602 28.5304 97.972 28.7944 97.096H33.5284C33.3244 98.416 32.7964 99.544 31.9444 100.48C31.1044 101.416 30.0844 102.13 28.8844 102.622C27.6844 103.114 26.4364 103.36 25.1404 103.36C23.3044 103.36 21.6844 102.976 20.2804 102.208C18.8884 101.428 17.8024 100.33 17.0224 98.914C16.2424 97.498 15.8524 95.83 15.8524 93.91C15.8524 92.05 16.2064 90.376 16.9144 88.888C17.6224 87.388 18.6484 86.206 19.9924 85.342C21.3484 84.466 22.9744 84.028 24.8704 84.028C26.7664 84.028 28.3564 84.43 29.6404 85.234C30.9364 86.026 31.9084 87.136 32.5564 88.564C33.2164 89.98 33.5464 91.618 33.5464 93.478V94.9H21.0544ZM21.0364 91.768H28.6324C28.6324 91.024 28.4944 90.34 28.2184 89.716C27.9424 89.092 27.5224 88.6 26.9584 88.24C26.4064 87.88 25.7104 87.7 24.8704 87.7C24.0544 87.7 23.3584 87.898 22.7824 88.294C22.2184 88.678 21.7864 89.182 21.4864 89.806C21.1864 90.43 21.0364 91.084 21.0364 91.768ZM37.1953 103V84.388H42.2533V88.798C42.5533 87.85 42.9733 87.022 43.5133 86.314C44.0653 85.594 44.7313 85.036 45.5113 84.64C46.2913 84.232 47.1733 84.028 48.1573 84.028C48.3253 84.028 48.4813 84.04 48.6253 84.064C48.7813 84.076 48.8953 84.1 48.9673 84.136V89.14C48.8593 89.092 48.7273 89.062 48.5713 89.05C48.4273 89.038 48.2953 89.026 48.1753 89.014C47.1433 88.93 46.2613 88.96 45.5293 89.104C44.7973 89.248 44.2033 89.494 43.7473 89.842C43.2913 90.19 42.9613 90.616 42.7573 91.12C42.5533 91.624 42.4513 92.188 42.4513 92.812V103H37.1953ZM59.1472 103.36C57.8512 103.36 56.6032 103.15 55.4032 102.73C54.2032 102.298 53.1892 101.626 52.3612 100.714C51.5332 99.79 51.0052 98.596 50.7772 97.132H55.3312C55.4872 97.792 55.7692 98.314 56.1772 98.698C56.5972 99.082 57.0712 99.358 57.5992 99.526C58.1272 99.682 58.6312 99.76 59.1112 99.76C60.1192 99.76 60.9292 99.604 61.5412 99.292C62.1652 98.968 62.4772 98.476 62.4772 97.816C62.4772 97.312 62.2912 96.91 61.9192 96.61C61.5592 96.31 60.9592 96.082 60.1192 95.926L56.8432 95.242C55.1992 94.894 53.8792 94.306 52.8832 93.478C51.8872 92.638 51.3772 91.45 51.3532 89.914C51.3532 88.798 51.6472 87.796 52.2352 86.908C52.8352 86.02 53.7172 85.318 54.8812 84.802C56.0452 84.286 57.4732 84.028 59.1652 84.028C61.4572 84.028 63.2872 84.532 64.6552 85.54C66.0352 86.548 66.7372 87.97 66.7612 89.806H62.3692C62.2372 89.086 61.8772 88.534 61.2892 88.15C60.7132 87.754 59.9872 87.556 59.1112 87.556C58.1992 87.556 57.4492 87.718 56.8612 88.042C56.2732 88.366 55.9792 88.858 55.9792 89.518C55.9792 90.01 56.2192 90.4 56.6992 90.688C57.1792 90.964 57.9232 91.204 58.9312 91.408L61.9552 92.092C62.9992 92.344 63.8452 92.692 64.4932 93.136C65.1532 93.568 65.6632 94.042 66.0232 94.558C66.3832 95.074 66.6292 95.596 66.7612 96.124C66.9052 96.64 66.9772 97.108 66.9772 97.528C66.9772 98.764 66.6472 99.82 65.9872 100.696C65.3272 101.56 64.4092 102.22 63.2332 102.676C62.0572 103.132 60.6952 103.36 59.1472 103.36ZM74.9841 94.9C74.9721 95.848 75.1221 96.676 75.4341 97.384C75.7461 98.08 76.1961 98.62 76.7841 99.004C77.3841 99.376 78.1041 99.562 78.9441 99.562C79.8441 99.562 80.6301 99.37 81.3021 98.986C81.9861 98.602 82.4601 97.972 82.7241 97.096H87.4581C87.2541 98.416 86.7261 99.544 85.8741 100.48C85.0341 101.416 84.0141 102.13 82.8141 102.622C81.6141 103.114 80.3661 103.36 79.0701 103.36C77.2341 103.36 75.6141 102.976 74.2101 102.208C72.8181 101.428 71.7321 100.33 70.9521 98.914C70.1721 97.498 69.7821 95.83 69.7821 93.91C69.7821 92.05 70.1361 90.376 70.8441 88.888C71.5521 87.388 72.5781 86.206 73.9221 85.342C75.2781 84.466 76.9041 84.028 78.8001 84.028C80.6961 84.028 82.2861 84.43 83.5701 85.234C84.8661 86.026 85.8381 87.136 86.4861 88.564C87.1461 89.98 87.4761 91.618 87.4761 93.478V94.9H74.9841ZM74.9661 91.768H82.5621C82.5621 91.024 82.4241 90.34 82.1481 89.716C81.8721 89.092 81.4521 88.6 80.8881 88.24C80.3361 87.88 79.6401 87.7 78.8001 87.7C77.9841 87.7 77.2881 87.898 76.7121 88.294C76.1481 88.678 75.7161 89.182 75.4161 89.806C75.1161 90.43 74.9661 91.084 74.9661 91.768ZM93.2496 108.94C91.9776 108.94 91.0776 108.832 90.5496 108.616C90.0336 108.412 89.7756 108.31 89.7756 108.31V104.962L91.6116 105.034C92.4156 105.082 93.0636 105.04 93.5556 104.908C94.0476 104.788 94.4196 104.626 94.6716 104.422C94.9356 104.218 95.1216 104.002 95.2296 103.774C95.3376 103.558 95.4156 103.384 95.4636 103.252L95.8056 102.226L88.5696 84.388H93.7716L98.2356 96.52L102.754 84.388H107.884L100.342 103.108C99.6936 104.692 99.0096 105.904 98.2896 106.744C97.5696 107.584 96.7896 108.16 95.9496 108.472C95.1216 108.784 94.2216 108.94 93.2496 108.94ZM120.628 103.36C119.404 103.36 118.216 103.21 117.064 102.91C115.912 102.598 114.868 102.136 113.932 101.524C112.996 100.912 112.216 100.156 111.592 99.256C110.98 98.344 110.596 97.288 110.44 96.088H113.932C114.148 97.072 114.574 97.9 115.21 98.572C115.858 99.244 116.644 99.748 117.568 100.084C118.504 100.42 119.518 100.588 120.61 100.588C121.834 100.588 122.926 100.42 123.886 100.084C124.858 99.736 125.62 99.244 126.172 98.608C126.736 97.972 127.018 97.21 127.018 96.322C127.018 95.542 126.838 94.864 126.478 94.288C126.13 93.712 125.62 93.232 124.948 92.848C124.276 92.464 123.46 92.164 122.5 91.948L117.388 90.76C115.468 90.34 113.962 89.59 112.87 88.51C111.79 87.43 111.238 86.002 111.214 84.226C111.214 82.726 111.61 81.406 112.402 80.266C113.206 79.126 114.304 78.238 115.696 77.602C117.1 76.966 118.702 76.648 120.502 76.648C122.578 76.648 124.324 77.002 125.74 77.71C127.156 78.418 128.224 79.348 128.944 80.5C129.664 81.652 130.03 82.882 130.042 84.19H126.604C126.496 83.014 126.148 82.084 125.56 81.4C124.984 80.704 124.258 80.212 123.382 79.924C122.506 79.624 121.552 79.474 120.52 79.474C119.776 79.474 119.056 79.57 118.36 79.762C117.676 79.942 117.058 80.218 116.506 80.59C115.966 80.962 115.534 81.424 115.21 81.976C114.886 82.528 114.724 83.17 114.724 83.902C114.724 84.838 115.042 85.6 115.678 86.188C116.326 86.776 117.496 87.28 119.188 87.7L124.138 88.888C125.434 89.164 126.49 89.572 127.306 90.112C128.134 90.652 128.77 91.264 129.214 91.948C129.67 92.632 129.982 93.346 130.15 94.09C130.33 94.834 130.42 95.566 130.42 96.286C130.42 97.594 130.03 98.788 129.25 99.868C128.47 100.936 127.348 101.788 125.884 102.424C124.432 103.048 122.68 103.36 120.628 103.36ZM144.327 86.818H140.133V98.392C140.133 99.052 140.199 99.538 140.331 99.85C140.475 100.15 140.709 100.342 141.033 100.426C141.369 100.51 141.825 100.552 142.401 100.552H144.435V102.784C144.207 102.868 143.859 102.94 143.391 103C142.935 103.06 142.365 103.09 141.681 103.09C140.397 103.09 139.401 102.916 138.693 102.568C137.985 102.22 137.487 101.704 137.199 101.02C136.923 100.336 136.785 99.496 136.785 98.5V86.818H133.761V84.388H136.875L137.685 78.97H140.133V84.37H144.327V86.818ZM156.015 103.36C154.299 103.36 152.799 102.994 151.515 102.262C150.231 101.518 149.235 100.432 148.527 99.004C147.819 97.576 147.465 95.83 147.465 93.766C147.465 91.822 147.795 90.118 148.455 88.654C149.115 87.19 150.081 86.056 151.353 85.252C152.637 84.436 154.191 84.028 156.015 84.028C157.731 84.028 159.219 84.406 160.479 85.162C161.751 85.906 162.735 87.004 163.431 88.456C164.127 89.908 164.475 91.678 164.475 93.766C164.475 95.662 164.151 97.33 163.503 98.77C162.867 100.21 161.919 101.338 160.659 102.154C159.411 102.958 157.863 103.36 156.015 103.36ZM156.015 100.732C157.131 100.732 158.073 100.45 158.841 99.886C159.609 99.322 160.191 98.512 160.587 97.456C160.983 96.4 161.181 95.146 161.181 93.694C161.181 92.362 161.007 91.168 160.659 90.112C160.311 89.044 159.753 88.198 158.985 87.574C158.229 86.95 157.239 86.638 156.015 86.638C154.887 86.638 153.933 86.92 153.153 87.484C152.373 88.036 151.779 88.84 151.371 89.896C150.975 90.952 150.777 92.218 150.777 93.694C150.777 95.002 150.957 96.19 151.317 97.258C151.677 98.326 152.241 99.172 153.009 99.796C153.777 100.42 154.779 100.732 156.015 100.732ZM168.832 103V84.388H172V87.97C172.312 87.082 172.75 86.35 173.314 85.774C173.878 85.186 174.52 84.748 175.24 84.46C175.972 84.172 176.728 84.028 177.508 84.028C177.784 84.028 178.054 84.046 178.318 84.082C178.582 84.118 178.786 84.178 178.93 84.262V87.484C178.75 87.4 178.516 87.346 178.228 87.322C177.952 87.286 177.718 87.268 177.526 87.268C176.782 87.22 176.086 87.268 175.438 87.412C174.79 87.544 174.22 87.778 173.728 88.114C173.236 88.45 172.846 88.894 172.558 89.446C172.282 89.986 172.144 90.646 172.144 91.426V103H168.832ZM184.778 94.468C184.778 95.644 184.97 96.712 185.354 97.672C185.75 98.62 186.344 99.376 187.136 99.94C187.94 100.504 188.942 100.786 190.142 100.786C191.33 100.786 192.35 100.51 193.202 99.958C194.066 99.406 194.618 98.608 194.858 97.564H198.008C197.78 98.824 197.276 99.886 196.496 100.75C195.716 101.614 194.774 102.268 193.67 102.712C192.566 103.144 191.414 103.36 190.214 103.36C188.474 103.36 186.944 102.982 185.624 102.226C184.304 101.47 183.272 100.384 182.528 98.968C181.784 97.552 181.412 95.854 181.412 93.874C181.412 91.918 181.748 90.202 182.42 88.726C183.092 87.25 184.064 86.098 185.336 85.27C186.62 84.442 188.162 84.028 189.962 84.028C191.714 84.028 193.196 84.406 194.408 85.162C195.62 85.918 196.538 86.986 197.162 88.366C197.798 89.734 198.116 91.36 198.116 93.244V94.468H184.778ZM184.796 92.218H194.912C194.912 91.15 194.732 90.19 194.372 89.338C194.012 88.474 193.46 87.796 192.716 87.304C191.984 86.8 191.06 86.548 189.944 86.548C188.78 86.548 187.814 86.83 187.046 87.394C186.29 87.946 185.72 88.66 185.336 89.536C184.964 90.4 184.784 91.294 184.796 92.218Z" fill="#22668A"/>
</svg>
